<svg xmlns="http://www.w3.org/2000/svg" viewBox="0 0 140 40" fill="none">
  <!-- Icon Only - For use with dynamic text -->
  <g transform="translate(2, 4)">
    <!-- Left page -->
    <path d="M2 4C2 2.89543 2.89543 2 4 2H12C13.1046 2 14 2.89543 14 4V23C14 23 12 22 8 22C4 22 2 23 2 23V4Z" fill="#1e293b"/>
    <!-- Right page -->
    <path d="M26 4C26 2.89543 25.1046 2 24 2H16C14.8954 2 14 2.89543 14 4V23C14 23 16 22 20 22C24 22 26 23 26 23V4Z" fill="#334155"/>
    <!-- Page lines left -->
    <path d="M5 7H11M5 10H10M5 13H11M5 16H9" stroke="#64748b" stroke-width="1.2" stroke-linecap="round"/>
    <!-- Page lines right -->
    <path d="M17 7H23M18 10H23M17 13H22M19 16H23" stroke="#94a3b8" stroke-width="1.2" stroke-linecap="round"/>
    <!-- Center binding -->
    <path d="M14 2V23" stroke="#0f172a" stroke-width="1"/>
    <!-- Accent dot -->
    <circle cx="24" cy="4" r="2.5" fill="#3b82f6"/>
  </g>
</svg>
